<svg width="32" height="32" viewBox="0 0 32 32" fill="none" xmlns="http://www.w3.org/2000/svg">
<path fill-rule="evenodd" clip-rule="evenodd" d="M8.22 5.41L6.81 4C4.46 6.35 3 9.6 3 13.19C3 16.78 4.46 20.03 6.81 22.38L8.22 20.97C6.23 18.98 5 16.23 5 13.19C5 10.15 6.23 7.4 8.22 5.41Z" fill="#1B1B1D"/>
<path fill-rule="evenodd" clip-rule="evenodd" d="M25.19 4L23.78 5.41C25.77 7.4 27 10.15 27 13.19C27 16.23 25.77 18.98 23.78 20.97L25.19 22.38C27.54 20.03 29 16.78 29 13.19C29 9.6 27.54 6.35 25.19 4Z" fill="#1B1B1D"/>
<path fill-rule="evenodd" clip-rule="evenodd" d="M11.75 8.95001L10.34 7.54004C8.89 8.99004 8 10.99 8 13.2C8 15.41 8.9 17.41 10.34 18.86L11.75 17.45C10.66 16.36 9.98999 14.86 9.98999 13.21C9.98999 11.56 10.66 10.05 11.75 8.97003V8.95001Z" fill="#1B1B1D"/>
<path fill-rule="evenodd" clip-rule="evenodd" d="M21.65 7.53L20.24 8.94C21.33 10.03 22 11.53 22 13.18C22 14.83 21.33 16.34 20.24 17.42L21.65 18.83C23.1 17.38 23.99 15.38 23.99 13.17C23.99 10.96 23.09 8.96001 21.65 7.51001V7.53Z" fill="#1B1B1D"/>
<path d="M18.47 10.71C17.84 10.08 16.96 9.67999 16 9.67999C15.04 9.67999 14.16 10.07 13.53 10.71C12.9 11.34 12.5 12.22 12.5 13.18C12.5 14.14 12.89 15.02 13.53 15.65C13.93 16.05 14.44 16.34 15 16.51V28H17V16.51C17.56 16.34 18.07 16.05 18.47 15.65C19.1 15.02 19.5 14.14 19.5 13.18C19.5 12.22 19.11 11.34 18.47 10.71ZM16 14.68C15.59 14.68 15.21 14.51 14.94 14.24C14.67 13.97 14.5 13.59 14.5 13.18C14.5 12.77 14.67 12.39 14.94 12.12C15.21 11.85 15.59 11.68 16 11.68C16.41 11.68 16.79 11.85 17.06 12.12C17.33 12.39 17.5 12.77 17.5 13.18C17.5 13.59 17.33 13.97 17.06 14.24C16.79 14.51 16.41 14.68 16 14.68Z" fill="#1B1B1D"/>
</svg>
