<svg width="24" height="24" viewBox="0 0 24 24" fill="none" xmlns="http://www.w3.org/2000/svg">
<path fill-rule="evenodd" clip-rule="evenodd" d="M12.0579 7.71166C12.0753 7.72226 12.0929 7.7351 12.1558 7.7808L12.1134 7.74868L12.0933 7.73429C12.0652 7.71667 12.0519 7.70836 12.0449 7.70406L12.0579 7.71166ZM4.66675 2.41504L4.67051 21.5849L14.1231 14.8126V21.0776H19.3331V3.07758H14.1231V9.18149L12.1018 7.73953C12.0988 7.73767 12.096 7.73598 12.0933 7.73429L4.66675 2.41504ZM10.9488 9.37454L10.9064 9.34243C10.9522 9.37574 10.9759 9.39298 10.9928 9.40452L14.4397 11.864C14.4545 11.877 14.4742 11.893 14.5231 11.9326L14.5963 11.9874L14.4984 12.0657C14.4744 12.0861 14.4591 12.0991 14.4483 12.1083L13.6401 12.6911C13.6045 12.7186 13.6045 12.7186 13.579 12.739C13.5681 12.7478 13.5681 12.7478 13.5595 12.7547C13.5407 12.7696 13.5407 12.7696 13.5377 12.7717L6.66973 17.6922L6.66749 6.30811L10.9488 9.37454ZM16.1231 13.1326V5.07764H17.3331V19.0776H16.1231V10.766L16.1207 11.9875L16.1231 13.1326Z" fill="#1B1B1D"/>
</svg>
