<svg width="24" height="24" viewBox="0 0 24 24" fill="none" xmlns="http://www.w3.org/2000/svg">
<path d="M7.28 5.54823C6.73 6.83758 6.43 8.24688 6.43 9.71614C6.43 14.4338 9.54 18.4318 13.81 19.7911C13.22 19.931 12.62 20.001 12 20.001C7.59 20.001 4 16.4128 4 12.005C4 9.35632 5.29 7.0075 7.28 5.54823ZM12 2.01C6.48 2.01 2 6.48776 2 12.005C2 17.5222 6.48 22 12 22C15.43 22 18.45 20.2709 20.25 17.6422C19.25 18.052 18.15 18.2819 17 18.2819C12.27 18.2819 8.43 14.4438 8.43 9.71614C8.43 6.37781 10.35 3.48925 13.14 2.06996C12.77 2.02998 12.39 2 12 2V2.01Z" fill="#1B1B1D"/>
<path fill-rule="evenodd" clip-rule="evenodd" d="M15.54 4.9985V6.69765H19.36L15.26 11.3653V12.9945H22V11.2754H17.94L22 6.73763V4.9985H15.54Z" fill="#1B1B1D"/>
</svg>
